<?xml version="1.0" encoding="UTF-8" standalone="no"?>
<!DOCTYPE svg PUBLIC "-//W3C//DTD SVG 1.1//EN" "http://www.w3.org/Graphics/SVG/1.1/DTD/svg11.dtd">
<svg width="100%" height="100%" viewBox="0 0 1020 150" version="1.1" xmlns="http://www.w3.org/2000/svg" xmlns:xlink="http://www.w3.org/1999/xlink" xml:space="preserve" xmlns:serif="http://www.serif.com/" style="fill-rule:evenodd;clip-rule:evenodd;stroke-linejoin:round;stroke-miterlimit:2;">
    <g transform="matrix(1,0,0,1,170.559,-460.914)">
        <g transform="matrix(100,0,0,100,-152.159,572.339)">
            <path d="M0.298,-0.385C0.321,-0.385 0.341,-0.388 0.357,-0.395C0.373,-0.402 0.387,-0.412 0.397,-0.424C0.407,-0.436 0.414,-0.45 0.419,-0.466C0.423,-0.482 0.426,-0.499 0.426,-0.517C0.426,-0.53 0.424,-0.543 0.42,-0.554C0.416,-0.565 0.409,-0.574 0.401,-0.582C0.392,-0.59 0.382,-0.596 0.369,-0.601C0.356,-0.605 0.341,-0.607 0.324,-0.607L0.266,-0.607L0.238,-0.385L0.298,-0.385ZM0.339,-0.729C0.383,-0.729 0.421,-0.724 0.453,-0.714C0.484,-0.705 0.51,-0.692 0.53,-0.675C0.55,-0.658 0.565,-0.639 0.574,-0.616C0.583,-0.593 0.588,-0.568 0.588,-0.542C0.588,-0.515 0.584,-0.489 0.577,-0.465C0.57,-0.441 0.559,-0.419 0.546,-0.399C0.532,-0.379 0.515,-0.361 0.496,-0.345C0.476,-0.33 0.453,-0.317 0.428,-0.307C0.438,-0.301 0.447,-0.294 0.456,-0.286C0.464,-0.278 0.471,-0.268 0.477,-0.257L0.583,-0L0.436,-0C0.422,-0 0.41,-0.003 0.401,-0.008C0.392,-0.014 0.386,-0.021 0.382,-0.031L0.303,-0.247C0.299,-0.256 0.294,-0.262 0.288,-0.266C0.282,-0.27 0.273,-0.272 0.261,-0.272L0.224,-0.272L0.191,-0L0.029,-0L0.118,-0.729L0.339,-0.729Z" style="fill-rule:nonzero;"/>
        </g>
        <g transform="matrix(100,0,0,100,-90.759,572.339)">
            <path d="M0.267,-0.603L0.246,-0.427L0.452,-0.427L0.436,-0.306L0.231,-0.306L0.208,-0.126L0.48,-0.126L0.464,-0L0.029,-0L0.119,-0.729L0.553,-0.729L0.537,-0.603L0.267,-0.603Z" style="fill-rule:nonzero;"/>
        </g>
        <g transform="matrix(100,0,0,100,-38.709,572.339)">
            <path d="M0.347,-0.126C0.365,-0.126 0.381,-0.127 0.394,-0.13C0.408,-0.133 0.419,-0.137 0.429,-0.141C0.439,-0.145 0.447,-0.15 0.454,-0.155C0.46,-0.16 0.466,-0.165 0.472,-0.17C0.477,-0.174 0.482,-0.177 0.487,-0.18C0.491,-0.183 0.496,-0.185 0.502,-0.185C0.507,-0.185 0.511,-0.184 0.515,-0.182C0.518,-0.18 0.521,-0.178 0.523,-0.176L0.58,-0.107C0.548,-0.069 0.51,-0.041 0.467,-0.021C0.423,-0.002 0.374,0.008 0.319,0.008C0.273,0.008 0.232,-0 0.196,-0.016C0.161,-0.032 0.131,-0.055 0.107,-0.083C0.082,-0.111 0.064,-0.145 0.051,-0.184C0.039,-0.223 0.033,-0.265 0.033,-0.31C0.033,-0.351 0.037,-0.391 0.047,-0.428C0.056,-0.465 0.069,-0.5 0.086,-0.532C0.103,-0.563 0.123,-0.592 0.147,-0.617C0.171,-0.642 0.198,-0.664 0.227,-0.682C0.256,-0.699 0.287,-0.713 0.32,-0.722C0.353,-0.732 0.388,-0.737 0.425,-0.737C0.452,-0.737 0.477,-0.734 0.499,-0.729C0.522,-0.724 0.542,-0.716 0.56,-0.707C0.578,-0.698 0.595,-0.687 0.609,-0.675C0.623,-0.662 0.636,-0.648 0.647,-0.633L0.59,-0.567C0.586,-0.562 0.581,-0.558 0.576,-0.554C0.57,-0.55 0.563,-0.549 0.555,-0.549C0.549,-0.549 0.544,-0.55 0.539,-0.553C0.534,-0.555 0.53,-0.558 0.525,-0.562C0.52,-0.566 0.515,-0.57 0.509,-0.575C0.503,-0.58 0.495,-0.584 0.487,-0.588C0.479,-0.592 0.469,-0.595 0.457,-0.598C0.446,-0.6 0.432,-0.602 0.417,-0.602C0.386,-0.602 0.357,-0.595 0.331,-0.582C0.304,-0.569 0.281,-0.55 0.262,-0.526C0.242,-0.502 0.227,-0.473 0.216,-0.438C0.205,-0.404 0.2,-0.365 0.2,-0.323C0.2,-0.292 0.203,-0.264 0.211,-0.24C0.218,-0.215 0.229,-0.195 0.242,-0.178C0.255,-0.161 0.27,-0.148 0.288,-0.139C0.306,-0.13 0.326,-0.126 0.347,-0.126Z" style="fill-rule:nonzero;"/>
        </g>
        <g transform="matrix(100,0,0,100,22.991,572.339)">
            <path d="M0.71,-0.729L0.62,-0L0.456,-0L0.494,-0.31L0.231,-0.31L0.193,-0L0.029,-0L0.119,-0.729L0.283,-0.729L0.245,-0.421L0.508,-0.421L0.546,-0.729L0.71,-0.729Z" style="fill-rule:nonzero;"/>
        </g>
        <g transform="matrix(100,0,0,100,95.391,572.339)">
            <path d="M0.586,-0.6L0.401,-0.6L0.327,-0L0.165,-0L0.238,-0.6L0.052,-0.6L0.068,-0.729L0.603,-0.729L0.586,-0.6Z" style="fill-rule:nonzero;"/>
        </g>
        <g transform="matrix(100,0,0,100,152.091,572.339)">
            <path d="M0.267,-0.603L0.246,-0.427L0.452,-0.427L0.436,-0.306L0.231,-0.306L0.208,-0.126L0.48,-0.126L0.464,-0L0.029,-0L0.119,-0.729L0.553,-0.729L0.537,-0.603L0.267,-0.603Z" style="fill-rule:nonzero;"/>
        </g>
        <g transform="matrix(100,0,0,100,204.141,572.339)">
            <path d="M0.397,-0.375L0.64,-0.375L0.602,-0.07C0.583,-0.056 0.564,-0.045 0.544,-0.035C0.524,-0.025 0.503,-0.017 0.481,-0.011C0.459,-0.004 0.436,0.001 0.412,0.004C0.388,0.007 0.362,0.008 0.335,0.008C0.29,0.008 0.248,-0 0.211,-0.017C0.174,-0.033 0.142,-0.056 0.116,-0.085C0.089,-0.114 0.069,-0.148 0.054,-0.188C0.04,-0.228 0.033,-0.271 0.033,-0.317C0.033,-0.357 0.037,-0.396 0.046,-0.432C0.055,-0.469 0.069,-0.502 0.086,-0.534C0.102,-0.564 0.123,-0.592 0.147,-0.618C0.171,-0.643 0.197,-0.664 0.226,-0.682C0.255,-0.699 0.287,-0.713 0.321,-0.722C0.354,-0.732 0.389,-0.737 0.427,-0.737C0.458,-0.737 0.486,-0.734 0.511,-0.728C0.536,-0.722 0.559,-0.715 0.579,-0.705C0.599,-0.696 0.616,-0.685 0.632,-0.672C0.648,-0.66 0.662,-0.647 0.674,-0.634L0.621,-0.568C0.612,-0.556 0.602,-0.549 0.59,-0.547C0.578,-0.544 0.565,-0.547 0.553,-0.555C0.541,-0.563 0.53,-0.57 0.52,-0.576C0.509,-0.582 0.499,-0.586 0.488,-0.59C0.477,-0.594 0.466,-0.597 0.454,-0.599C0.442,-0.601 0.429,-0.602 0.415,-0.602C0.383,-0.602 0.354,-0.595 0.328,-0.581C0.301,-0.568 0.279,-0.549 0.26,-0.524C0.241,-0.5 0.226,-0.47 0.215,-0.436C0.205,-0.402 0.2,-0.364 0.2,-0.323C0.2,-0.291 0.203,-0.262 0.211,-0.236C0.219,-0.211 0.23,-0.189 0.245,-0.172C0.259,-0.154 0.276,-0.141 0.296,-0.132C0.316,-0.122 0.338,-0.118 0.363,-0.118C0.383,-0.118 0.401,-0.119 0.417,-0.123C0.432,-0.126 0.448,-0.131 0.463,-0.138L0.477,-0.257L0.415,-0.257C0.405,-0.257 0.397,-0.259 0.392,-0.264C0.387,-0.269 0.385,-0.276 0.386,-0.285L0.397,-0.375Z" style="fill-rule:nonzero;"/>
        </g>
        <g transform="matrix(100,0,0,100,271.641,572.339)">
            <path d="M0.267,-0.603L0.246,-0.427L0.452,-0.427L0.436,-0.306L0.231,-0.306L0.208,-0.126L0.48,-0.126L0.464,-0L0.029,-0L0.119,-0.729L0.553,-0.729L0.537,-0.603L0.267,-0.603Z" style="fill-rule:nonzero;"/>
        </g>
        <g transform="matrix(100,0,0,100,325.191,572.339)">
            <path d="M1.032,-0.729L0.735,-0L0.587,-0L0.52,-0.46C0.518,-0.468 0.517,-0.476 0.516,-0.485C0.515,-0.493 0.514,-0.502 0.513,-0.512C0.509,-0.502 0.505,-0.493 0.502,-0.485C0.499,-0.476 0.496,-0.468 0.493,-0.46L0.315,-0L0.168,-0L0.05,-0.729L0.178,-0.729C0.192,-0.729 0.203,-0.725 0.211,-0.719C0.22,-0.712 0.225,-0.704 0.227,-0.693L0.278,-0.301C0.279,-0.288 0.28,-0.275 0.281,-0.261C0.282,-0.247 0.283,-0.232 0.284,-0.217C0.289,-0.232 0.294,-0.247 0.299,-0.261C0.304,-0.275 0.309,-0.289 0.315,-0.301L0.464,-0.693C0.466,-0.697 0.468,-0.702 0.472,-0.706C0.476,-0.71 0.48,-0.714 0.485,-0.718C0.49,-0.721 0.496,-0.724 0.502,-0.726C0.508,-0.728 0.514,-0.729 0.521,-0.729L0.559,-0.729C0.573,-0.729 0.584,-0.725 0.592,-0.719C0.6,-0.712 0.606,-0.703 0.609,-0.693L0.665,-0.301C0.667,-0.289 0.668,-0.276 0.67,-0.262C0.672,-0.248 0.673,-0.234 0.675,-0.219C0.679,-0.234 0.684,-0.248 0.688,-0.262C0.692,-0.276 0.697,-0.289 0.701,-0.301L0.845,-0.693C0.846,-0.698 0.848,-0.702 0.852,-0.707C0.856,-0.711 0.861,-0.715 0.866,-0.718C0.871,-0.721 0.877,-0.724 0.883,-0.726C0.889,-0.728 0.896,-0.729 0.903,-0.729L1.032,-0.729Z" style="fill-rule:nonzero;"/>
        </g>
        <g transform="matrix(100,0,0,100,418.291,572.339)">
            <path d="M0.421,-0.278L0.386,-0.486C0.383,-0.499 0.38,-0.514 0.377,-0.532C0.374,-0.55 0.371,-0.569 0.368,-0.59C0.36,-0.569 0.352,-0.549 0.344,-0.531C0.336,-0.513 0.329,-0.498 0.324,-0.485L0.238,-0.278L0.421,-0.278ZM0.638,-0L0.512,-0C0.498,-0 0.487,-0.003 0.479,-0.01C0.471,-0.016 0.466,-0.025 0.463,-0.036L0.44,-0.167L0.193,-0.167L0.139,-0.036C0.134,-0.027 0.126,-0.018 0.116,-0.011C0.106,-0.004 0.095,-0 0.082,-0L-0.047,-0L0.302,-0.729L0.469,-0.729L0.638,-0Z" style="fill-rule:nonzero;"/>
        </g>
        <g transform="matrix(100,0,0,100,484.991,572.339)">
            <path d="M0.453,-0.13L0.437,-0L0.029,-0L0.119,-0.729L0.282,-0.729L0.208,-0.13L0.453,-0.13Z" style="fill-rule:nonzero;"/>
        </g>
        <g transform="matrix(100,0,0,100,525.791,572.339)">
            <path d="M0.586,-0.6L0.401,-0.6L0.327,-0L0.165,-0L0.238,-0.6L0.052,-0.6L0.068,-0.729L0.603,-0.729L0.586,-0.6Z" style="fill-rule:nonzero;"/>
        </g>
        <g transform="matrix(100,0,0,100,575.341,572.339)">
            <path d="M0.007,-0.079C0.007,-0.091 0.009,-0.102 0.013,-0.112C0.018,-0.122 0.024,-0.131 0.032,-0.139C0.04,-0.147 0.049,-0.153 0.06,-0.157C0.07,-0.162 0.082,-0.164 0.095,-0.164C0.107,-0.164 0.118,-0.162 0.129,-0.157C0.14,-0.153 0.149,-0.147 0.157,-0.139C0.165,-0.131 0.171,-0.122 0.176,-0.112C0.18,-0.102 0.183,-0.091 0.183,-0.079C0.183,-0.067 0.18,-0.055 0.176,-0.045C0.171,-0.034 0.165,-0.025 0.157,-0.018C0.149,-0.01 0.14,-0.004 0.129,0.001C0.118,0.005 0.107,0.007 0.095,0.007C0.082,0.007 0.07,0.005 0.06,0.001C0.049,-0.004 0.04,-0.01 0.032,-0.018C0.024,-0.025 0.018,-0.034 0.013,-0.045C0.009,-0.055 0.007,-0.067 0.007,-0.079Z" style="fill-rule:nonzero;"/>
        </g>
        <g transform="matrix(100,0,0,100,599.491,572.339)">
            <path d="M0.193,-0L0.029,-0L0.118,-0.729L0.282,-0.729L0.193,-0Z" style="fill-rule:nonzero;"/>
        </g>
        <g transform="matrix(100,0,0,100,629.141,572.339)">
            <path d="M0.71,-0.729L0.62,-0L0.535,-0C0.522,-0 0.512,-0.002 0.504,-0.006C0.496,-0.01 0.489,-0.017 0.482,-0.027L0.227,-0.477C0.226,-0.458 0.225,-0.44 0.223,-0.425L0.173,-0L0.029,-0L0.119,-0.729L0.205,-0.729C0.212,-0.729 0.217,-0.728 0.222,-0.728C0.227,-0.727 0.231,-0.726 0.235,-0.724C0.239,-0.722 0.242,-0.72 0.245,-0.717C0.248,-0.713 0.251,-0.709 0.255,-0.704L0.51,-0.254C0.511,-0.265 0.512,-0.276 0.513,-0.287C0.514,-0.298 0.515,-0.308 0.517,-0.317L0.566,-0.729L0.71,-0.729Z" style="fill-rule:nonzero;"/>
        </g>
        <g transform="matrix(100,0,0,100,701.541,572.339)">
            <path d="M0.267,-0.603L0.244,-0.411L0.469,-0.411L0.452,-0.286L0.228,-0.286L0.193,-0L0.029,-0L0.119,-0.729L0.553,-0.729L0.537,-0.603L0.267,-0.603Z" style="fill-rule:nonzero;"/>
        </g>
        <g transform="matrix(100,0,0,100,754.041,572.339)">
            <path d="M0.742,-0.411C0.741,-0.372 0.737,-0.334 0.728,-0.298C0.719,-0.262 0.706,-0.229 0.689,-0.198C0.672,-0.167 0.652,-0.138 0.628,-0.113C0.604,-0.088 0.577,-0.066 0.548,-0.048C0.518,-0.03 0.486,-0.017 0.451,-0.007C0.416,0.003 0.38,0.008 0.342,0.008C0.294,0.008 0.25,-0 0.212,-0.017C0.174,-0.034 0.142,-0.057 0.115,-0.086C0.088,-0.115 0.068,-0.15 0.054,-0.189C0.04,-0.229 0.033,-0.271 0.033,-0.317C0.033,-0.356 0.037,-0.394 0.046,-0.43C0.055,-0.466 0.068,-0.5 0.085,-0.531C0.102,-0.562 0.123,-0.59 0.147,-0.616C0.17,-0.641 0.197,-0.662 0.227,-0.68C0.257,-0.698 0.289,-0.712 0.324,-0.722C0.358,-0.732 0.395,-0.737 0.434,-0.737C0.481,-0.737 0.524,-0.728 0.562,-0.711C0.6,-0.694 0.633,-0.671 0.659,-0.642C0.686,-0.613 0.706,-0.578 0.72,-0.539C0.734,-0.499 0.741,-0.456 0.742,-0.411ZM0.575,-0.407C0.575,-0.437 0.571,-0.464 0.564,-0.489C0.557,-0.513 0.546,-0.534 0.532,-0.552C0.518,-0.569 0.502,-0.583 0.482,-0.592C0.462,-0.602 0.439,-0.607 0.414,-0.607C0.38,-0.607 0.35,-0.6 0.324,-0.586C0.298,-0.572 0.275,-0.553 0.257,-0.528C0.238,-0.502 0.224,-0.472 0.214,-0.437C0.204,-0.402 0.2,-0.363 0.2,-0.321C0.2,-0.291 0.203,-0.263 0.21,-0.239C0.217,-0.215 0.227,-0.194 0.241,-0.177C0.254,-0.159 0.271,-0.146 0.291,-0.136C0.311,-0.127 0.334,-0.122 0.36,-0.122C0.393,-0.122 0.423,-0.129 0.449,-0.143C0.476,-0.156 0.498,-0.175 0.517,-0.201C0.535,-0.226 0.55,-0.256 0.56,-0.291C0.57,-0.326 0.575,-0.364 0.575,-0.407Z" style="fill-rule:nonzero;"/>
        </g>
    </g>
</svg>
